<?xml version="1.0" encoding="UTF-8" standalone="no"?>
<!DOCTYPE svg PUBLIC "-//W3C//DTD SVG 1.1//EN"
 "http://www.w3.org/Graphics/SVG/1.1/DTD/svg11.dtd">
<!-- Generated by graphviz version 2.47.0 (20210316.0004)
 -->
<!-- Title: dependencies Pages: 1 -->
<svg width="667pt" height="211pt"
 viewBox="0.00 0.00 667.00 211.00" xmlns="http://www.w3.org/2000/svg" xmlns:xlink="http://www.w3.org/1999/xlink">
<g id="graph0" class="graph" transform="scale(1 1) rotate(0) translate(4 207)">
<title>dependencies</title>
<polygon fill="white" stroke="transparent" points="-4,4 -4,-207 663,-207 663,4 -4,4"/>
<text text-anchor="start" x="308.51" y="-42.4" font-family="Times-12" font-weight="bold" font-size="14.00">Legend</text>
<polygon fill="#ffffb3" stroke="transparent" points="95.5,-10 95.5,-30 115.5,-30 115.5,-10 95.5,-10"/>
<text text-anchor="start" x="119.13" y="-15.4" font-family="Times-12" font-size="14.00"> &#160;Declarations</text>
<polygon fill="#8dd3c7" stroke="transparent" points="208.5,-10 208.5,-30 228.5,-30 228.5,-10 208.5,-10"/>
<text text-anchor="start" x="232.23" y="-15.4" font-family="Times-12" font-size="14.00"> &#160;Module</text>
<polygon fill="#80b1d3" stroke="transparent" points="294.5,-10 294.5,-30 314.5,-30 314.5,-10 294.5,-10"/>
<text text-anchor="start" x="318.28" y="-15.4" font-family="Times-12" font-size="14.00"> &#160;Bootstrap</text>
<polygon fill="#fdb462" stroke="transparent" points="391.5,-10 391.5,-30 411.5,-30 411.5,-10 391.5,-10"/>
<text text-anchor="start" x="415.17" y="-15.4" font-family="Times-12" font-size="14.00"> &#160;Providers</text>
<polygon fill="#fb8072" stroke="transparent" points="487.5,-10 487.5,-30 507.5,-30 507.5,-10 487.5,-10"/>
<text text-anchor="start" x="511.23" y="-15.4" font-family="Times-12" font-size="14.00"> &#160;Exports</text>
<g id="clust1" class="cluster">
<title>cluster_AuthModule</title>
<polygon fill="none" stroke="black" stroke-dasharray="1,5" points="8,-70 8,-195 651,-195 651,-70 8,-70"/>
</g>
<g id="clust3" class="cluster">
<title>cluster_AuthModule_imports</title>
<polygon fill="none" stroke="black" points="16,-78 16,-130 643,-130 643,-78 16,-78"/>
</g>
<!-- AuthRoutingModule -->
<g id="node1" class="node">
<title>AuthRoutingModule</title>
<polygon fill="#8dd3c7" stroke="black" points="635.17,-122 632.17,-126 611.17,-126 608.17,-122 502.83,-122 502.83,-86 635.17,-86 635.17,-122"/>
<text text-anchor="middle" x="569" y="-99.8" font-family="Times,serif" font-size="14.00">AuthRoutingModule</text>
</g>
<!-- AuthModule -->
<g id="node5" class="node">
<title>AuthModule</title>
<polygon fill="#8dd3c7" stroke="black" points="470.55,-187 467.55,-191 446.55,-191 443.55,-187 383.45,-187 383.45,-151 470.55,-151 470.55,-187"/>
<text text-anchor="middle" x="427" y="-164.8" font-family="Times,serif" font-size="14.00">AuthModule</text>
</g>
<!-- AuthRoutingModule&#45;&gt;AuthModule -->
<g id="edge1" class="edge">
<title>AuthRoutingModule&#45;&gt;AuthModule</title>
<path fill="none" stroke="black" d="M569,-122.11C569,-141.34 569,-169 569,-169 569,-169 480.76,-169 480.76,-169"/>
<polygon fill="black" stroke="black" points="480.76,-165.5 470.76,-169 480.76,-172.5 480.76,-165.5"/>
</g>
<!-- LoginComponent -->
<g id="node2" class="node">
<title>LoginComponent</title>
<polygon fill="#8dd3c7" stroke="black" points="484.28,-122 481.28,-126 460.28,-126 457.28,-122 369.72,-122 369.72,-86 484.28,-86 484.28,-122"/>
<text text-anchor="middle" x="427" y="-99.8" font-family="Times,serif" font-size="14.00">LoginComponent</text>
</g>
<!-- LoginComponent&#45;&gt;AuthModule -->
<g id="edge2" class="edge">
<title>LoginComponent&#45;&gt;AuthModule</title>
<path fill="none" stroke="black" d="M441.59,-122.11C441.59,-122.11 441.59,-140.99 441.59,-140.99"/>
<polygon fill="black" stroke="black" points="438.09,-140.99 441.59,-150.99 445.09,-140.99 438.09,-140.99"/>
</g>
<!-- LoginComponent&#45;&gt;AuthModule -->
<g id="edge3" class="edge">
<title>LoginComponent&#45;&gt;AuthModule</title>
<path fill="none" stroke="black" d="M412.41,-122.11C412.41,-122.11 412.41,-140.99 412.41,-140.99"/>
<polygon fill="black" stroke="black" points="408.91,-140.99 412.41,-150.99 415.91,-140.99 408.91,-140.99"/>
</g>
<!-- RecoverPasswordComponent -->
<g id="node3" class="node">
<title>RecoverPasswordComponent</title>
<polygon fill="#8dd3c7" stroke="black" points="351.63,-122 348.63,-126 327.63,-126 324.63,-122 170.37,-122 170.37,-86 351.63,-86 351.63,-122"/>
<text text-anchor="middle" x="261" y="-99.8" font-family="Times,serif" font-size="14.00">RecoverPasswordComponent</text>
</g>
<!-- RecoverPasswordComponent&#45;&gt;AuthModule -->
<g id="edge4" class="edge">
<title>RecoverPasswordComponent&#45;&gt;AuthModule</title>
<path fill="none" stroke="black" d="M261,-122.02C261,-139.37 261,-163 261,-163 261,-163 373.39,-163 373.39,-163"/>
<polygon fill="black" stroke="black" points="373.39,-166.5 383.39,-163 373.39,-159.5 373.39,-166.5"/>
</g>
<!-- RegisterComponent -->
<g id="node4" class="node">
<title>RegisterComponent</title>
<polygon fill="#8dd3c7" stroke="black" points="151.98,-122 148.98,-126 127.98,-126 124.98,-122 24.02,-122 24.02,-86 151.98,-86 151.98,-122"/>
<text text-anchor="middle" x="88" y="-99.8" font-family="Times,serif" font-size="14.00">RegisterComponent</text>
</g>
<!-- RegisterComponent&#45;&gt;AuthModule -->
<g id="edge5" class="edge">
<title>RegisterComponent&#45;&gt;AuthModule</title>
<path fill="none" stroke="black" d="M88,-122.28C88,-143.32 88,-175 88,-175 88,-175 373.38,-175 373.38,-175"/>
<polygon fill="black" stroke="black" points="373.38,-178.5 383.38,-175 373.38,-171.5 373.38,-178.5"/>
</g>
</g>
</svg>
