<?xml version="1.0" encoding="UTF-8" standalone="no"?>
<!DOCTYPE svg PUBLIC "-//W3C//DTD SVG 1.1//EN"
 "http://www.w3.org/Graphics/SVG/1.1/DTD/svg11.dtd">
<!-- Generated by graphviz version 2.47.0 (20210316.0004)
 -->
<!-- Title: dependencies Pages: 1 -->
<svg width="907pt" height="284pt"
 viewBox="0.00 0.00 907.00 284.00" xmlns="http://www.w3.org/2000/svg" xmlns:xlink="http://www.w3.org/1999/xlink">
<g id="graph0" class="graph" transform="scale(1 1) rotate(0) translate(4 280)">
<title>dependencies</title>
<polygon fill="white" stroke="transparent" points="-4,4 -4,-280 903,-280 903,4 -4,4"/>
<text text-anchor="start" x="428.51" y="-42.4" font-family="Times-12" font-weight="bold" font-size="14.00">Legend</text>
<polygon fill="#ffffb3" stroke="transparent" points="215.5,-10 215.5,-30 235.5,-30 235.5,-10 215.5,-10"/>
<text text-anchor="start" x="239.13" y="-15.4" font-family="Times-12" font-size="14.00"> &#160;Declarations</text>
<polygon fill="#8dd3c7" stroke="transparent" points="328.5,-10 328.5,-30 348.5,-30 348.5,-10 328.5,-10"/>
<text text-anchor="start" x="352.23" y="-15.4" font-family="Times-12" font-size="14.00"> &#160;Module</text>
<polygon fill="#80b1d3" stroke="transparent" points="414.5,-10 414.5,-30 434.5,-30 434.5,-10 414.5,-10"/>
<text text-anchor="start" x="438.28" y="-15.4" font-family="Times-12" font-size="14.00"> &#160;Bootstrap</text>
<polygon fill="#fdb462" stroke="transparent" points="511.5,-10 511.5,-30 531.5,-30 531.5,-10 511.5,-10"/>
<text text-anchor="start" x="535.17" y="-15.4" font-family="Times-12" font-size="14.00"> &#160;Providers</text>
<polygon fill="#fb8072" stroke="transparent" points="607.5,-10 607.5,-30 627.5,-30 627.5,-10 607.5,-10"/>
<text text-anchor="start" x="631.23" y="-15.4" font-family="Times-12" font-size="14.00"> &#160;Exports</text>
<g id="clust1" class="cluster">
<title>cluster_AppModule</title>
<polygon fill="none" stroke="black" stroke-dasharray="1,5" points="8,-70 8,-268 891,-268 891,-70 8,-70"/>
</g>
<g id="clust2" class="cluster">
<title>cluster_AppModule_declarations</title>
<polygon fill="none" stroke="black" points="628,-78 628,-130 883,-130 883,-78 628,-78"/>
</g>
<g id="clust7" class="cluster">
<title>cluster_AppModule_bootstrap</title>
<polygon fill="none" stroke="black" points="423,-208 423,-260 547,-260 547,-208 423,-208"/>
</g>
<g id="clust5" class="cluster">
<title>cluster_AppModule_imports</title>
<polygon fill="none" stroke="black" points="16,-78 16,-130 620,-130 620,-78 16,-78"/>
</g>
<!-- AppComponent -->
<g id="node1" class="node">
<title>AppComponent</title>
<polygon fill="#ffffb3" stroke="black" points="874.94,-122 769.06,-122 769.06,-86 874.94,-86 874.94,-122"/>
<text text-anchor="middle" x="822" y="-99.8" font-family="Times,serif" font-size="14.00">AppComponent</text>
</g>
<!-- AppModule -->
<g id="node3" class="node">
<title>AppModule</title>
<polygon fill="#8dd3c7" stroke="black" points="526.66,-187 523.66,-191 502.66,-191 499.66,-187 443.34,-187 443.34,-151 526.66,-151 526.66,-187"/>
<text text-anchor="middle" x="485" y="-164.8" font-family="Times,serif" font-size="14.00">AppModule</text>
</g>
<!-- AppComponent&#45;&gt;AppModule -->
<g id="edge1" class="edge">
<title>AppComponent&#45;&gt;AppModule</title>
<path fill="none" stroke="black" d="M822,-122.28C822,-143.32 822,-175 822,-175 822,-175 536.66,-175 536.66,-175"/>
<polygon fill="black" stroke="black" points="536.66,-171.5 526.66,-175 536.66,-178.5 536.66,-171.5"/>
</g>
<!-- HomeComponent -->
<g id="node2" class="node">
<title>HomeComponent</title>
<polygon fill="#ffffb3" stroke="black" points="751.55,-122 636.45,-122 636.45,-86 751.55,-86 751.55,-122"/>
<text text-anchor="middle" x="694" y="-99.8" font-family="Times,serif" font-size="14.00">HomeComponent</text>
</g>
<!-- HomeComponent&#45;&gt;AppModule -->
<g id="edge2" class="edge">
<title>HomeComponent&#45;&gt;AppModule</title>
<path fill="none" stroke="black" d="M694,-122.02C694,-139.37 694,-163 694,-163 694,-163 536.79,-163 536.79,-163"/>
<polygon fill="black" stroke="black" points="536.79,-159.5 526.79,-163 536.79,-166.5 536.79,-159.5"/>
</g>
<!-- AppComponent  -->
<g id="node8" class="node">
<title>AppComponent </title>
<polygon fill="#80b1d3" stroke="black" points="539.44,-252 430.56,-252 430.56,-216 539.44,-216 539.44,-252"/>
<text text-anchor="middle" x="485" y="-229.8" font-family="Times,serif" font-size="14.00">AppComponent </text>
</g>
<!-- AppModule&#45;&gt;AppComponent  -->
<g id="edge7" class="edge">
<title>AppModule&#45;&gt;AppComponent </title>
<path fill="none" stroke="black" stroke-dasharray="1,5" d="M485,-187.11C485,-187.11 485,-205.99 485,-205.99"/>
<polygon fill="black" stroke="black" points="481.5,-205.99 485,-215.99 488.5,-205.99 481.5,-205.99"/>
</g>
<!-- AppRoutingModule -->
<g id="node4" class="node">
<title>AppRoutingModule</title>
<polygon fill="#8dd3c7" stroke="black" points="612.27,-122 609.27,-126 588.27,-126 585.27,-122 483.73,-122 483.73,-86 612.27,-86 612.27,-122"/>
<text text-anchor="middle" x="548" y="-99.8" font-family="Times,serif" font-size="14.00">AppRoutingModule</text>
</g>
<!-- AppRoutingModule&#45;&gt;AppModule -->
<g id="edge3" class="edge">
<title>AppRoutingModule&#45;&gt;AppModule</title>
<path fill="none" stroke="black" d="M505.22,-122.11C505.22,-122.11 505.22,-140.99 505.22,-140.99"/>
<polygon fill="black" stroke="black" points="501.72,-140.99 505.22,-150.99 508.72,-140.99 501.72,-140.99"/>
</g>
<!-- CoreModule -->
<g id="node5" class="node">
<title>CoreModule</title>
<polygon fill="#8dd3c7" stroke="black" points="465.26,-122 462.26,-126 441.26,-126 438.26,-122 378.74,-122 378.74,-86 465.26,-86 465.26,-122"/>
<text text-anchor="middle" x="422" y="-99.8" font-family="Times,serif" font-size="14.00">CoreModule</text>
</g>
<!-- CoreModule&#45;&gt;AppModule -->
<g id="edge4" class="edge">
<title>CoreModule&#45;&gt;AppModule</title>
<path fill="none" stroke="black" d="M454.28,-122.11C454.28,-122.11 454.28,-140.99 454.28,-140.99"/>
<polygon fill="black" stroke="black" points="450.78,-140.99 454.28,-150.99 457.78,-140.99 450.78,-140.99"/>
</g>
<!-- MedicinaGeneralComponent -->
<g id="node6" class="node">
<title>MedicinaGeneralComponent</title>
<polygon fill="#8dd3c7" stroke="black" points="360,-122 357,-126 336,-126 333,-122 182,-122 182,-86 360,-86 360,-122"/>
<text text-anchor="middle" x="271" y="-99.8" font-family="Times,serif" font-size="14.00">MedicinaGeneralComponent</text>
</g>
<!-- MedicinaGeneralComponent&#45;&gt;AppModule -->
<g id="edge5" class="edge">
<title>MedicinaGeneralComponent&#45;&gt;AppModule</title>
<path fill="none" stroke="black" d="M271,-122.02C271,-139.37 271,-163 271,-163 271,-163 433.23,-163 433.23,-163"/>
<polygon fill="black" stroke="black" points="433.23,-166.5 443.23,-163 433.23,-159.5 433.23,-166.5"/>
</g>
<!-- PsicologiaComponent -->
<g id="node7" class="node">
<title>PsicologiaComponent</title>
<polygon fill="#8dd3c7" stroke="black" points="163.66,-122 160.66,-126 139.66,-126 136.66,-122 24.34,-122 24.34,-86 163.66,-86 163.66,-122"/>
<text text-anchor="middle" x="94" y="-99.8" font-family="Times,serif" font-size="14.00">PsicologiaComponent</text>
</g>
<!-- PsicologiaComponent&#45;&gt;AppModule -->
<g id="edge6" class="edge">
<title>PsicologiaComponent&#45;&gt;AppModule</title>
<path fill="none" stroke="black" d="M94,-122.28C94,-143.32 94,-175 94,-175 94,-175 433.16,-175 433.16,-175"/>
<polygon fill="black" stroke="black" points="433.16,-178.5 443.16,-175 433.16,-171.5 433.16,-178.5"/>
</g>
</g>
</svg>
