<?xml version="1.0" encoding="UTF-8" standalone="no"?>
<!DOCTYPE svg PUBLIC "-//W3C//DTD SVG 1.1//EN"
 "http://www.w3.org/Graphics/SVG/1.1/DTD/svg11.dtd">
<!-- Generated by graphviz version 2.47.0 (20210316.0004)
 -->
<!-- Title: dependencies Pages: 1 -->
<svg width="907pt" height="284pt"
 viewBox="0.00 0.00 907.00 284.00" xmlns="http://www.w3.org/2000/svg" xmlns:xlink="http://www.w3.org/1999/xlink">
<g id="graph0" class="graph" transform="scale(1 1) rotate(0) translate(4 280)">
<title>dependencies</title>
<polygon fill="white" stroke="transparent" points="-4,4 -4,-280 903,-280 903,4 -4,4"/>
<text text-anchor="start" x="428.51" y="-42.4" font-family="Times-12" font-weight="bold" font-size="14.00">Legend</text>
<polygon fill="#ffffb3" stroke="transparent" points="215.5,-10 215.5,-30 235.5,-30 235.5,-10 215.5,-10"/>
<text text-anchor="start" x="239.13" y="-15.4" font-family="Times-12" font-size="14.00"> &#160;Declarations</text>
<polygon fill="#8dd3c7" stroke="transparent" points="328.5,-10 328.5,-30 348.5,-30 348.5,-10 328.5,-10"/>
<text text-anchor="start" x="352.23" y="-15.4" font-family="Times-12" font-size="14.00"> &#160;Module</text>
<polygon fill="#80b1d3" stroke="transparent" points="414.5,-10 414.5,-30 434.5,-30 434.5,-10 414.5,-10"/>
<text text-anchor="start" x="438.28" y="-15.4" font-family="Times-12" font-size="14.00"> &#160;Bootstrap</text>
<polygon fill="#fdb462" stroke="transparent" points="511.5,-10 511.5,-30 531.5,-30 531.5,-10 511.5,-10"/>
<text text-anchor="start" x="535.17" y="-15.4" font-family="Times-12" font-size="14.00"> &#160;Providers</text>
<polygon fill="#fb8072" stroke="transparent" points="607.5,-10 607.5,-30 627.5,-30 627.5,-10 607.5,-10"/>
<text text-anchor="start" x="631.23" y="-15.4" font-family="Times-12" font-size="14.00"> &#160;Exports</text>
<g id="clust1" class="cluster">
<title>cluster_AppModule</title>
<polygon fill="none" stroke="black" stroke-dasharray="1,5" points="8,-70 8,-268 891,-268 891,-70 8,-70"/>
</g>
<g id="clust5" class="cluster">
<title>cluster_AppModule_imports</title>
<polygon fill="none" stroke="black" points="279,-78 279,-130 883,-130 883,-78 279,-78"/>
</g>
<g id="clust2" class="cluster">
<title>cluster_AppModule_declarations</title>
<polygon fill="none" stroke="black" points="16,-78 16,-130 271,-130 271,-78 16,-78"/>
</g>
<g id="clust7" class="cluster">
<title>cluster_AppModule_bootstrap</title>
<polygon fill="none" stroke="black" points="383,-208 383,-260 507,-260 507,-208 383,-208"/>
</g>
<!-- AppComponent -->
<g id="node1" class="node">
<title>AppComponent</title>
<polygon fill="#ffffb3" stroke="black" points="262.94,-122 157.06,-122 157.06,-86 262.94,-86 262.94,-122"/>
<text text-anchor="middle" x="210" y="-99.8" font-family="Times,serif" font-size="14.00">AppComponent</text>
</g>
<!-- AppModule -->
<g id="node3" class="node">
<title>AppModule</title>
<polygon fill="#8dd3c7" stroke="black" points="486.66,-187 483.66,-191 462.66,-191 459.66,-187 403.34,-187 403.34,-151 486.66,-151 486.66,-187"/>
<text text-anchor="middle" x="445" y="-164.8" font-family="Times,serif" font-size="14.00">AppModule</text>
</g>
<!-- AppComponent&#45;&gt;AppModule -->
<g id="edge1" class="edge">
<title>AppComponent&#45;&gt;AppModule</title>
<path fill="none" stroke="black" d="M210,-122.02C210,-139.37 210,-163 210,-163 210,-163 393.26,-163 393.26,-163"/>
<polygon fill="black" stroke="black" points="393.26,-166.5 403.26,-163 393.26,-159.5 393.26,-166.5"/>
</g>
<!-- HomeComponent -->
<g id="node2" class="node">
<title>HomeComponent</title>
<polygon fill="#ffffb3" stroke="black" points="139.55,-122 24.45,-122 24.45,-86 139.55,-86 139.55,-122"/>
<text text-anchor="middle" x="82" y="-99.8" font-family="Times,serif" font-size="14.00">HomeComponent</text>
</g>
<!-- HomeComponent&#45;&gt;AppModule -->
<g id="edge2" class="edge">
<title>HomeComponent&#45;&gt;AppModule</title>
<path fill="none" stroke="black" d="M82,-122.28C82,-143.32 82,-175 82,-175 82,-175 393,-175 393,-175"/>
<polygon fill="black" stroke="black" points="393,-178.5 403,-175 393,-171.5 393,-178.5"/>
</g>
<!-- AppComponent  -->
<g id="node8" class="node">
<title>AppComponent </title>
<polygon fill="#80b1d3" stroke="black" points="499.44,-252 390.56,-252 390.56,-216 499.44,-216 499.44,-252"/>
<text text-anchor="middle" x="445" y="-229.8" font-family="Times,serif" font-size="14.00">AppComponent </text>
</g>
<!-- AppModule&#45;&gt;AppComponent  -->
<g id="edge7" class="edge">
<title>AppModule&#45;&gt;AppComponent </title>
<path fill="none" stroke="black" stroke-dasharray="1,5" d="M445,-187.11C445,-187.11 445,-205.99 445,-205.99"/>
<polygon fill="black" stroke="black" points="441.5,-205.99 445,-215.99 448.5,-205.99 441.5,-205.99"/>
</g>
<!-- AppRoutingModule -->
<g id="node4" class="node">
<title>AppRoutingModule</title>
<polygon fill="#8dd3c7" stroke="black" points="875.27,-122 872.27,-126 851.27,-126 848.27,-122 746.73,-122 746.73,-86 875.27,-86 875.27,-122"/>
<text text-anchor="middle" x="811" y="-99.8" font-family="Times,serif" font-size="14.00">AppRoutingModule</text>
</g>
<!-- AppRoutingModule&#45;&gt;AppModule -->
<g id="edge3" class="edge">
<title>AppRoutingModule&#45;&gt;AppModule</title>
<path fill="none" stroke="black" d="M811,-122.28C811,-143.32 811,-175 811,-175 811,-175 496.98,-175 496.98,-175"/>
<polygon fill="black" stroke="black" points="496.98,-171.5 486.98,-175 496.98,-178.5 496.98,-171.5"/>
</g>
<!-- CoreModule -->
<g id="node5" class="node">
<title>CoreModule</title>
<polygon fill="#8dd3c7" stroke="black" points="728.26,-122 725.26,-126 704.26,-126 701.26,-122 641.74,-122 641.74,-86 728.26,-86 728.26,-122"/>
<text text-anchor="middle" x="685" y="-99.8" font-family="Times,serif" font-size="14.00">CoreModule</text>
</g>
<!-- CoreModule&#45;&gt;AppModule -->
<g id="edge4" class="edge">
<title>CoreModule&#45;&gt;AppModule</title>
<path fill="none" stroke="black" d="M685,-122.02C685,-139.37 685,-163 685,-163 685,-163 496.8,-163 496.8,-163"/>
<polygon fill="black" stroke="black" points="496.8,-159.5 486.8,-163 496.8,-166.5 496.8,-159.5"/>
</g>
<!-- MedicinaGeneralComponent -->
<g id="node6" class="node">
<title>MedicinaGeneralComponent</title>
<polygon fill="#8dd3c7" stroke="black" points="623,-122 620,-126 599,-126 596,-122 445,-122 445,-86 623,-86 623,-122"/>
<text text-anchor="middle" x="534" y="-99.8" font-family="Times,serif" font-size="14.00">MedicinaGeneralComponent</text>
</g>
<!-- MedicinaGeneralComponent&#45;&gt;AppModule -->
<g id="edge5" class="edge">
<title>MedicinaGeneralComponent&#45;&gt;AppModule</title>
<path fill="none" stroke="black" d="M465.79,-122.11C465.79,-122.11 465.79,-140.99 465.79,-140.99"/>
<polygon fill="black" stroke="black" points="462.29,-140.99 465.79,-150.99 469.29,-140.99 462.29,-140.99"/>
</g>
<!-- PsicologiaComponent -->
<g id="node7" class="node">
<title>PsicologiaComponent</title>
<polygon fill="#8dd3c7" stroke="black" points="426.66,-122 423.66,-126 402.66,-126 399.66,-122 287.34,-122 287.34,-86 426.66,-86 426.66,-122"/>
<text text-anchor="middle" x="357" y="-99.8" font-family="Times,serif" font-size="14.00">PsicologiaComponent</text>
</g>
<!-- PsicologiaComponent&#45;&gt;AppModule -->
<g id="edge6" class="edge">
<title>PsicologiaComponent&#45;&gt;AppModule</title>
<path fill="none" stroke="black" d="M415,-122.11C415,-122.11 415,-140.99 415,-140.99"/>
<polygon fill="black" stroke="black" points="411.5,-140.99 415,-150.99 418.5,-140.99 411.5,-140.99"/>
</g>
</g>
</svg>
