<?xml version="1.0" encoding="UTF-8" standalone="no"?>
<!DOCTYPE svg PUBLIC "-//W3C//DTD SVG 1.1//EN"
 "http://www.w3.org/Graphics/SVG/1.1/DTD/svg11.dtd">
<!-- Generated by graphviz version 2.47.0 (20210316.0004)
 -->
<!-- Title: dependencies Pages: 1 -->
<svg width="761pt" height="284pt"
 viewBox="0.00 0.00 761.00 284.00" xmlns="http://www.w3.org/2000/svg" xmlns:xlink="http://www.w3.org/1999/xlink">
<g id="graph0" class="graph" transform="scale(1 1) rotate(0) translate(4 280)">
<title>dependencies</title>
<polygon fill="white" stroke="transparent" points="-4,4 -4,-280 757,-280 757,4 -4,4"/>
<text text-anchor="start" x="355.51" y="-42.4" font-family="Times-12" font-weight="bold" font-size="14.00">Legend</text>
<polygon fill="#ffffb3" stroke="transparent" points="142.5,-10 142.5,-30 162.5,-30 162.5,-10 142.5,-10"/>
<text text-anchor="start" x="166.13" y="-15.4" font-family="Times-12" font-size="14.00"> &#160;Declarations</text>
<polygon fill="#8dd3c7" stroke="transparent" points="255.5,-10 255.5,-30 275.5,-30 275.5,-10 255.5,-10"/>
<text text-anchor="start" x="279.23" y="-15.4" font-family="Times-12" font-size="14.00"> &#160;Module</text>
<polygon fill="#80b1d3" stroke="transparent" points="341.5,-10 341.5,-30 361.5,-30 361.5,-10 341.5,-10"/>
<text text-anchor="start" x="365.28" y="-15.4" font-family="Times-12" font-size="14.00"> &#160;Bootstrap</text>
<polygon fill="#fdb462" stroke="transparent" points="438.5,-10 438.5,-30 458.5,-30 458.5,-10 438.5,-10"/>
<text text-anchor="start" x="462.17" y="-15.4" font-family="Times-12" font-size="14.00"> &#160;Providers</text>
<polygon fill="#fb8072" stroke="transparent" points="534.5,-10 534.5,-30 554.5,-30 554.5,-10 534.5,-10"/>
<text text-anchor="start" x="558.23" y="-15.4" font-family="Times-12" font-size="14.00"> &#160;Exports</text>
<g id="clust1" class="cluster">
<title>cluster_AppModule</title>
<polygon fill="none" stroke="black" stroke-dasharray="1,5" points="8,-70 8,-268 745,-268 745,-70 8,-70"/>
</g>
<g id="clust6" class="cluster">
<title>cluster_AppModule_bootstrap</title>
<polygon fill="none" stroke="black" points="316,-208 316,-260 440,-260 440,-208 316,-208"/>
</g>
<g id="clust2" class="cluster">
<title>cluster_AppModule_declarations</title>
<polygon fill="none" stroke="black" points="615,-78 615,-130 737,-130 737,-78 615,-78"/>
</g>
<g id="clust4" class="cluster">
<title>cluster_AppModule_imports</title>
<polygon fill="none" stroke="black" points="16,-78 16,-130 607,-130 607,-78 16,-78"/>
</g>
<!-- AppComponent -->
<g id="node1" class="node">
<title>AppComponent</title>
<polygon fill="#ffffb3" stroke="black" points="728.94,-122 623.06,-122 623.06,-86 728.94,-86 728.94,-122"/>
<text text-anchor="middle" x="676" y="-99.8" font-family="Times,serif" font-size="14.00">AppComponent</text>
</g>
<!-- AppModule -->
<g id="node2" class="node">
<title>AppModule</title>
<polygon fill="#8dd3c7" stroke="black" points="419.66,-187 416.66,-191 395.66,-191 392.66,-187 336.34,-187 336.34,-151 419.66,-151 419.66,-187"/>
<text text-anchor="middle" x="378" y="-164.8" font-family="Times,serif" font-size="14.00">AppModule</text>
</g>
<!-- AppComponent&#45;&gt;AppModule -->
<g id="edge1" class="edge">
<title>AppComponent&#45;&gt;AppModule</title>
<path fill="none" stroke="black" d="M676,-122.28C676,-143.32 676,-175 676,-175 676,-175 429.75,-175 429.75,-175"/>
<polygon fill="black" stroke="black" points="429.75,-171.5 419.75,-175 429.75,-178.5 429.75,-171.5"/>
</g>
<!-- AppComponent  -->
<g id="node7" class="node">
<title>AppComponent </title>
<polygon fill="#80b1d3" stroke="black" points="432.44,-252 323.56,-252 323.56,-216 432.44,-216 432.44,-252"/>
<text text-anchor="middle" x="378" y="-229.8" font-family="Times,serif" font-size="14.00">AppComponent </text>
</g>
<!-- AppModule&#45;&gt;AppComponent  -->
<g id="edge6" class="edge">
<title>AppModule&#45;&gt;AppComponent </title>
<path fill="none" stroke="black" stroke-dasharray="1,5" d="M378,-187.11C378,-187.11 378,-205.99 378,-205.99"/>
<polygon fill="black" stroke="black" points="374.5,-205.99 378,-215.99 381.5,-205.99 374.5,-205.99"/>
</g>
<!-- AppRoutingModule -->
<g id="node3" class="node">
<title>AppRoutingModule</title>
<polygon fill="#8dd3c7" stroke="black" points="599.27,-122 596.27,-126 575.27,-126 572.27,-122 470.73,-122 470.73,-86 599.27,-86 599.27,-122"/>
<text text-anchor="middle" x="535" y="-99.8" font-family="Times,serif" font-size="14.00">AppRoutingModule</text>
</g>
<!-- AppRoutingModule&#45;&gt;AppModule -->
<g id="edge2" class="edge">
<title>AppRoutingModule&#45;&gt;AppModule</title>
<path fill="none" stroke="black" d="M535,-122.02C535,-139.37 535,-163 535,-163 535,-163 429.66,-163 429.66,-163"/>
<polygon fill="black" stroke="black" points="429.66,-159.5 419.66,-163 429.66,-166.5 429.66,-159.5"/>
</g>
<!-- AuthLayoutComponent -->
<g id="node4" class="node">
<title>AuthLayoutComponent</title>
<polygon fill="#8dd3c7" stroke="black" points="452.49,-122 449.49,-126 428.49,-126 425.49,-122 303.51,-122 303.51,-86 452.49,-86 452.49,-122"/>
<text text-anchor="middle" x="378" y="-99.8" font-family="Times,serif" font-size="14.00">AuthLayoutComponent</text>
</g>
<!-- AuthLayoutComponent&#45;&gt;AppModule -->
<g id="edge3" class="edge">
<title>AuthLayoutComponent&#45;&gt;AppModule</title>
<path fill="none" stroke="black" d="M378,-122.11C378,-122.11 378,-140.99 378,-140.99"/>
<polygon fill="black" stroke="black" points="374.5,-140.99 378,-150.99 381.5,-140.99 374.5,-140.99"/>
</g>
<!-- CoreModule -->
<g id="node5" class="node">
<title>CoreModule</title>
<polygon fill="#8dd3c7" stroke="black" points="285.26,-122 282.26,-126 261.26,-126 258.26,-122 198.74,-122 198.74,-86 285.26,-86 285.26,-122"/>
<text text-anchor="middle" x="242" y="-99.8" font-family="Times,serif" font-size="14.00">CoreModule</text>
</g>
<!-- CoreModule&#45;&gt;AppModule -->
<g id="edge4" class="edge">
<title>CoreModule&#45;&gt;AppModule</title>
<path fill="none" stroke="black" d="M242,-122.02C242,-139.37 242,-163 242,-163 242,-163 326.09,-163 326.09,-163"/>
<polygon fill="black" stroke="black" points="326.09,-166.5 336.09,-163 326.09,-159.5 326.09,-166.5"/>
</g>
<!-- PublicLayoutComponent -->
<g id="node6" class="node">
<title>PublicLayoutComponent</title>
<polygon fill="#8dd3c7" stroke="black" points="180.27,-122 177.27,-126 156.27,-126 153.27,-122 23.73,-122 23.73,-86 180.27,-86 180.27,-122"/>
<text text-anchor="middle" x="102" y="-99.8" font-family="Times,serif" font-size="14.00">PublicLayoutComponent</text>
</g>
<!-- PublicLayoutComponent&#45;&gt;AppModule -->
<g id="edge5" class="edge">
<title>PublicLayoutComponent&#45;&gt;AppModule</title>
<path fill="none" stroke="black" d="M102,-122.28C102,-143.32 102,-175 102,-175 102,-175 326.08,-175 326.08,-175"/>
<polygon fill="black" stroke="black" points="326.08,-178.5 336.08,-175 326.08,-171.5 326.08,-178.5"/>
</g>
</g>
</svg>
