<?xml version="1.0" encoding="UTF-8" standalone="no"?>
<!DOCTYPE svg PUBLIC "-//W3C//DTD SVG 1.1//EN"
 "http://www.w3.org/Graphics/SVG/1.1/DTD/svg11.dtd">
<!-- Generated by graphviz version 2.47.0 (20210316.0004)
 -->
<!-- Title: dependencies Pages: 1 -->
<svg width="2904pt" height="290pt"
 viewBox="0.00 0.00 2904.00 290.00" xmlns="http://www.w3.org/2000/svg" xmlns:xlink="http://www.w3.org/1999/xlink">
<g id="graph0" class="graph" transform="scale(1 1) rotate(0) translate(4 286)">
<title>dependencies</title>
<polygon fill="white" stroke="transparent" points="-4,4 -4,-286 2900,-286 2900,4 -4,4"/>
<text text-anchor="start" x="1427.01" y="-42.4" font-family="Times-12" font-weight="bold" font-size="14.00">Legend</text>
<polygon fill="#ffffb3" stroke="transparent" points="1214,-10 1214,-30 1234,-30 1234,-10 1214,-10"/>
<text text-anchor="start" x="1237.63" y="-15.4" font-family="Times-12" font-size="14.00"> &#160;Declarations</text>
<polygon fill="#8dd3c7" stroke="transparent" points="1327,-10 1327,-30 1347,-30 1347,-10 1327,-10"/>
<text text-anchor="start" x="1350.73" y="-15.4" font-family="Times-12" font-size="14.00"> &#160;Module</text>
<polygon fill="#80b1d3" stroke="transparent" points="1413,-10 1413,-30 1433,-30 1433,-10 1413,-10"/>
<text text-anchor="start" x="1436.78" y="-15.4" font-family="Times-12" font-size="14.00"> &#160;Bootstrap</text>
<polygon fill="#fdb462" stroke="transparent" points="1510,-10 1510,-30 1530,-30 1530,-10 1510,-10"/>
<text text-anchor="start" x="1533.67" y="-15.4" font-family="Times-12" font-size="14.00"> &#160;Providers</text>
<polygon fill="#fb8072" stroke="transparent" points="1606,-10 1606,-30 1626,-30 1626,-10 1606,-10"/>
<text text-anchor="start" x="1629.73" y="-15.4" font-family="Times-12" font-size="14.00"> &#160;Exports</text>
<g id="clust1" class="cluster">
<title>cluster_AdminModule</title>
<polygon fill="none" stroke="black" stroke-dasharray="1,5" points="8,-70 8,-198 328,-198 328,-70 8,-70"/>
</g>
<g id="clust2" class="cluster">
<title>cluster_AdminModule_declarations</title>
<polygon fill="none" stroke="black" points="184,-78 184,-130 320,-130 320,-78 184,-78"/>
</g>
<g id="clust4" class="cluster">
<title>cluster_AdminModule_imports</title>
<polygon fill="none" stroke="black" points="16,-78 16,-130 176,-130 176,-78 16,-78"/>
</g>
<g id="clust14" class="cluster">
<title>cluster_AppModule</title>
<polygon fill="none" stroke="black" stroke-dasharray="1,5" points="336,-70 336,-274 1218,-274 1218,-70 336,-70"/>
</g>
<g id="clust15" class="cluster">
<title>cluster_AppModule_declarations</title>
<polygon fill="none" stroke="black" points="344,-78 344,-130 599,-130 599,-78 344,-78"/>
</g>
<g id="clust18" class="cluster">
<title>cluster_AppModule_imports</title>
<polygon fill="none" stroke="black" points="607,-78 607,-130 1210,-130 1210,-78 607,-78"/>
</g>
<g id="clust20" class="cluster">
<title>cluster_AppModule_bootstrap</title>
<polygon fill="none" stroke="black" points="730,-214 730,-266 854,-266 854,-214 730,-214"/>
</g>
<g id="clust28" class="cluster">
<title>cluster_AuthModule</title>
<polygon fill="none" stroke="black" stroke-dasharray="1,5" points="1813,-70 1813,-198 2456,-198 2456,-70 1813,-70"/>
</g>
<g id="clust30" class="cluster">
<title>cluster_AuthModule_imports</title>
<polygon fill="none" stroke="black" points="1821,-78 1821,-130 2448,-130 2448,-78 1821,-78"/>
</g>
<g id="clust40" class="cluster">
<title>cluster_CoreModule</title>
<polygon fill="none" stroke="black" stroke-dasharray="1,5" points="1226,-138 1226,-206 1805,-206 1805,-138 1226,-138"/>
</g>
<g id="clust41" class="cluster">
<title>cluster_CoreModule_declarations</title>
<polygon fill="none" stroke="black" points="1523,-146 1523,-198 1797,-198 1797,-146 1523,-146"/>
</g>
<g id="clust45" class="cluster">
<title>cluster_CoreModule_exports</title>
<polygon fill="none" stroke="black" points="1234,-146 1234,-198 1515,-198 1515,-146 1234,-146"/>
</g>
<g id="clust54" class="cluster">
<title>cluster_UserModule</title>
<polygon fill="none" stroke="black" stroke-dasharray="1,5" points="2464,-70 2464,-198 2888,-198 2888,-70 2464,-70"/>
</g>
<g id="clust56" class="cluster">
<title>cluster_UserModule_imports</title>
<polygon fill="none" stroke="black" points="2472,-78 2472,-130 2880,-130 2880,-78 2472,-78"/>
</g>
<!-- AdminComponent -->
<g id="node1" class="node">
<title>AdminComponent</title>
<polygon fill="#ffffb3" stroke="black" points="312.22,-122 191.78,-122 191.78,-86 312.22,-86 312.22,-122"/>
<text text-anchor="middle" x="252" y="-99.8" font-family="Times,serif" font-size="14.00">AdminComponent</text>
</g>
<!-- AdminModule -->
<g id="node2" class="node">
<title>AdminModule</title>
<polygon fill="#8dd3c7" stroke="black" points="223.44,-190 220.44,-194 199.44,-194 196.44,-190 124.56,-190 124.56,-154 223.44,-154 223.44,-190"/>
<text text-anchor="middle" x="174" y="-167.8" font-family="Times,serif" font-size="14.00">AdminModule</text>
</g>
<!-- AdminComponent&#45;&gt;AdminModule -->
<g id="edge1" class="edge">
<title>AdminComponent&#45;&gt;AdminModule</title>
<path fill="none" stroke="black" d="M207.55,-122.22C207.55,-122.22 207.55,-143.73 207.55,-143.73"/>
<polygon fill="black" stroke="black" points="204.05,-143.73 207.55,-153.73 211.05,-143.73 204.05,-143.73"/>
</g>
<!-- AdminRoutingModule -->
<g id="node3" class="node">
<title>AdminRoutingModule</title>
<polygon fill="#8dd3c7" stroke="black" points="167.56,-122 164.56,-126 143.56,-126 140.56,-122 24.44,-122 24.44,-86 167.56,-86 167.56,-122"/>
<text text-anchor="middle" x="96" y="-99.8" font-family="Times,serif" font-size="14.00">AdminRoutingModule</text>
</g>
<!-- AdminRoutingModule&#45;&gt;AdminModule -->
<g id="edge2" class="edge">
<title>AdminRoutingModule&#45;&gt;AdminModule</title>
<path fill="none" stroke="black" d="M146.28,-122.22C146.28,-122.22 146.28,-143.73 146.28,-143.73"/>
<polygon fill="black" stroke="black" points="142.78,-143.73 146.28,-153.73 149.78,-143.73 142.78,-143.73"/>
</g>
<!-- AppComponent -->
<g id="node4" class="node">
<title>AppComponent</title>
<polygon fill="#ffffb3" stroke="black" points="590.94,-122 485.06,-122 485.06,-86 590.94,-86 590.94,-122"/>
<text text-anchor="middle" x="538" y="-99.8" font-family="Times,serif" font-size="14.00">AppComponent</text>
</g>
<!-- AppModule -->
<g id="node6" class="node">
<title>AppModule</title>
<polygon fill="#8dd3c7" stroke="black" points="833.66,-190 830.66,-194 809.66,-194 806.66,-190 750.34,-190 750.34,-154 833.66,-154 833.66,-190"/>
<text text-anchor="middle" x="792" y="-167.8" font-family="Times,serif" font-size="14.00">AppModule</text>
</g>
<!-- AppComponent&#45;&gt;AppModule -->
<g id="edge3" class="edge">
<title>AppComponent&#45;&gt;AppModule</title>
<path fill="none" stroke="black" d="M538,-122.27C538,-140.56 538,-166 538,-166 538,-166 740.34,-166 740.34,-166"/>
<polygon fill="black" stroke="black" points="740.34,-169.5 750.34,-166 740.34,-162.5 740.34,-169.5"/>
</g>
<!-- HomeComponent -->
<g id="node5" class="node">
<title>HomeComponent</title>
<polygon fill="#ffffb3" stroke="black" points="467.55,-122 352.45,-122 352.45,-86 467.55,-86 467.55,-122"/>
<text text-anchor="middle" x="410" y="-99.8" font-family="Times,serif" font-size="14.00">HomeComponent</text>
</g>
<!-- HomeComponent&#45;&gt;AppModule -->
<g id="edge4" class="edge">
<title>HomeComponent&#45;&gt;AppModule</title>
<path fill="none" stroke="black" d="M410,-122.29C410,-144.21 410,-178 410,-178 410,-178 740.03,-178 740.03,-178"/>
<polygon fill="black" stroke="black" points="740.03,-181.5 750.03,-178 740.03,-174.5 740.03,-181.5"/>
</g>
<!-- AppComponent  -->
<g id="node11" class="node">
<title>AppComponent </title>
<polygon fill="#80b1d3" stroke="black" points="846.44,-258 737.56,-258 737.56,-222 846.44,-222 846.44,-258"/>
<text text-anchor="middle" x="792" y="-235.8" font-family="Times,serif" font-size="14.00">AppComponent </text>
</g>
<!-- AppModule&#45;&gt;AppComponent  -->
<g id="edge9" class="edge">
<title>AppModule&#45;&gt;AppComponent </title>
<path fill="none" stroke="black" stroke-dasharray="1,5" d="M792,-190.22C792,-190.22 792,-211.73 792,-211.73"/>
<polygon fill="black" stroke="black" points="788.5,-211.73 792,-221.73 795.5,-211.73 788.5,-211.73"/>
</g>
<!-- AppRoutingModule -->
<g id="node7" class="node">
<title>AppRoutingModule</title>
<polygon fill="#8dd3c7" stroke="black" points="1097.27,-122 1094.27,-126 1073.27,-126 1070.27,-122 968.73,-122 968.73,-86 1097.27,-86 1097.27,-122"/>
<text text-anchor="middle" x="1033" y="-99.8" font-family="Times,serif" font-size="14.00">AppRoutingModule</text>
</g>
<!-- AppRoutingModule&#45;&gt;AppModule -->
<g id="edge5" class="edge">
<title>AppRoutingModule&#45;&gt;AppModule</title>
<path fill="none" stroke="black" d="M1033,-122.02C1033,-139.37 1033,-163 1033,-163 1033,-163 843.7,-163 843.7,-163"/>
<polygon fill="black" stroke="black" points="843.7,-159.5 833.7,-163 843.7,-166.5 843.7,-159.5"/>
</g>
<!-- CoreModule -->
<g id="node8" class="node">
<title>CoreModule</title>
<polygon fill="#8dd3c7" stroke="black" points="1202.26,-122 1199.26,-126 1178.26,-126 1175.26,-122 1115.74,-122 1115.74,-86 1202.26,-86 1202.26,-122"/>
<text text-anchor="middle" x="1159" y="-99.8" font-family="Times,serif" font-size="14.00">CoreModule</text>
</g>
<!-- CoreModule&#45;&gt;AppModule -->
<g id="edge6" class="edge">
<title>CoreModule&#45;&gt;AppModule</title>
<path fill="none" stroke="black" d="M1144.54,-122.22C1144.54,-142.37 1144.54,-172 1144.54,-172 1144.54,-172 843.83,-172 843.83,-172"/>
<polygon fill="black" stroke="black" points="843.83,-168.5 833.83,-172 843.83,-175.5 843.83,-168.5"/>
</g>
<!-- FooterComponent  -->
<g id="node19" class="node">
<title>FooterComponent </title>
<polygon fill="#fb8072" stroke="black" points="1506.88,-190 1385.12,-190 1385.12,-154 1506.88,-154 1506.88,-190"/>
<text text-anchor="middle" x="1446" y="-167.8" font-family="Times,serif" font-size="14.00">FooterComponent </text>
</g>
<!-- CoreModule&#45;&gt;FooterComponent  -->
<g id="edge17" class="edge">
<title>CoreModule&#45;&gt;FooterComponent </title>
<path fill="none" stroke="black" stroke-dasharray="5,2" d="M1202.28,-113C1282.45,-113 1446,-113 1446,-113 1446,-113 1446,-143.98 1446,-143.98"/>
<polygon fill="black" stroke="black" points="1442.5,-143.98 1446,-153.98 1449.5,-143.98 1442.5,-143.98"/>
</g>
<!-- HeaderComponent  -->
<g id="node20" class="node">
<title>HeaderComponent </title>
<polygon fill="#fb8072" stroke="black" points="1367.74,-190 1242.26,-190 1242.26,-154 1367.74,-154 1367.74,-190"/>
<text text-anchor="middle" x="1305" y="-167.8" font-family="Times,serif" font-size="14.00">HeaderComponent </text>
</g>
<!-- CoreModule&#45;&gt;HeaderComponent  -->
<g id="edge18" class="edge">
<title>CoreModule&#45;&gt;HeaderComponent </title>
<path fill="none" stroke="black" stroke-dasharray="5,2" d="M1173.46,-122.25C1173.46,-145.02 1173.46,-181 1173.46,-181 1173.46,-181 1232.31,-181 1232.31,-181"/>
<polygon fill="black" stroke="black" points="1232.31,-184.5 1242.31,-181 1232.31,-177.5 1232.31,-184.5"/>
</g>
<!-- MedicinaGeneralComponent -->
<g id="node9" class="node">
<title>MedicinaGeneralComponent</title>
<polygon fill="#8dd3c7" stroke="black" points="793,-122 790,-126 769,-126 766,-122 615,-122 615,-86 793,-86 793,-122"/>
<text text-anchor="middle" x="704" y="-99.8" font-family="Times,serif" font-size="14.00">MedicinaGeneralComponent</text>
</g>
<!-- MedicinaGeneralComponent&#45;&gt;AppModule -->
<g id="edge7" class="edge">
<title>MedicinaGeneralComponent&#45;&gt;AppModule</title>
<path fill="none" stroke="black" d="M771.71,-122.22C771.71,-122.22 771.71,-143.73 771.71,-143.73"/>
<polygon fill="black" stroke="black" points="768.21,-143.73 771.71,-153.73 775.21,-143.73 768.21,-143.73"/>
</g>
<!-- PsicologiaComponent -->
<g id="node10" class="node">
<title>PsicologiaComponent</title>
<polygon fill="#8dd3c7" stroke="black" points="950.66,-122 947.66,-126 926.66,-126 923.66,-122 811.34,-122 811.34,-86 950.66,-86 950.66,-122"/>
<text text-anchor="middle" x="881" y="-99.8" font-family="Times,serif" font-size="14.00">PsicologiaComponent</text>
</g>
<!-- PsicologiaComponent&#45;&gt;AppModule -->
<g id="edge8" class="edge">
<title>PsicologiaComponent&#45;&gt;AppModule</title>
<path fill="none" stroke="black" d="M822.5,-122.22C822.5,-122.22 822.5,-143.73 822.5,-143.73"/>
<polygon fill="black" stroke="black" points="819,-143.73 822.5,-153.73 826,-143.73 819,-143.73"/>
</g>
<!-- AuthRoutingModule -->
<g id="node12" class="node">
<title>AuthRoutingModule</title>
<polygon fill="#8dd3c7" stroke="black" points="2440.17,-122 2437.17,-126 2416.17,-126 2413.17,-122 2307.83,-122 2307.83,-86 2440.17,-86 2440.17,-122"/>
<text text-anchor="middle" x="2374" y="-99.8" font-family="Times,serif" font-size="14.00">AuthRoutingModule</text>
</g>
<!-- AuthModule -->
<g id="node16" class="node">
<title>AuthModule</title>
<polygon fill="#8dd3c7" stroke="black" points="2275.55,-190 2272.55,-194 2251.55,-194 2248.55,-190 2188.45,-190 2188.45,-154 2275.55,-154 2275.55,-190"/>
<text text-anchor="middle" x="2232" y="-167.8" font-family="Times,serif" font-size="14.00">AuthModule</text>
</g>
<!-- AuthRoutingModule&#45;&gt;AuthModule -->
<g id="edge10" class="edge">
<title>AuthRoutingModule&#45;&gt;AuthModule</title>
<path fill="none" stroke="black" d="M2374,-122.29C2374,-144.21 2374,-178 2374,-178 2374,-178 2285.76,-178 2285.76,-178"/>
<polygon fill="black" stroke="black" points="2285.76,-174.5 2275.76,-178 2285.76,-181.5 2285.76,-174.5"/>
</g>
<!-- LoginComponent -->
<g id="node13" class="node">
<title>LoginComponent</title>
<polygon fill="#8dd3c7" stroke="black" points="2289.28,-122 2286.28,-126 2265.28,-126 2262.28,-122 2174.72,-122 2174.72,-86 2289.28,-86 2289.28,-122"/>
<text text-anchor="middle" x="2232" y="-99.8" font-family="Times,serif" font-size="14.00">LoginComponent</text>
</g>
<!-- LoginComponent&#45;&gt;AuthModule -->
<g id="edge11" class="edge">
<title>LoginComponent&#45;&gt;AuthModule</title>
<path fill="none" stroke="black" d="M2217.41,-122.22C2217.41,-122.22 2217.41,-143.73 2217.41,-143.73"/>
<polygon fill="black" stroke="black" points="2213.91,-143.73 2217.41,-153.73 2220.91,-143.73 2213.91,-143.73"/>
</g>
<!-- LoginComponent&#45;&gt;AuthModule -->
<g id="edge12" class="edge">
<title>LoginComponent&#45;&gt;AuthModule</title>
<path fill="none" stroke="black" d="M2246.59,-122.22C2246.59,-122.22 2246.59,-143.73 2246.59,-143.73"/>
<polygon fill="black" stroke="black" points="2243.09,-143.73 2246.59,-153.73 2250.09,-143.73 2243.09,-143.73"/>
</g>
<!-- RecoverPasswordComponent -->
<g id="node14" class="node">
<title>RecoverPasswordComponent</title>
<polygon fill="#8dd3c7" stroke="black" points="2156.63,-122 2153.63,-126 2132.63,-126 2129.63,-122 1975.37,-122 1975.37,-86 2156.63,-86 2156.63,-122"/>
<text text-anchor="middle" x="2066" y="-99.8" font-family="Times,serif" font-size="14.00">RecoverPasswordComponent</text>
</g>
<!-- RecoverPasswordComponent&#45;&gt;AuthModule -->
<g id="edge13" class="edge">
<title>RecoverPasswordComponent&#45;&gt;AuthModule</title>
<path fill="none" stroke="black" d="M2066,-122.27C2066,-140.56 2066,-166 2066,-166 2066,-166 2178.39,-166 2178.39,-166"/>
<polygon fill="black" stroke="black" points="2178.39,-169.5 2188.39,-166 2178.39,-162.5 2178.39,-169.5"/>
</g>
<!-- RegisterComponent -->
<g id="node15" class="node">
<title>RegisterComponent</title>
<polygon fill="#8dd3c7" stroke="black" points="1956.98,-122 1953.98,-126 1932.98,-126 1929.98,-122 1829.02,-122 1829.02,-86 1956.98,-86 1956.98,-122"/>
<text text-anchor="middle" x="1893" y="-99.8" font-family="Times,serif" font-size="14.00">RegisterComponent</text>
</g>
<!-- RegisterComponent&#45;&gt;AuthModule -->
<g id="edge14" class="edge">
<title>RegisterComponent&#45;&gt;AuthModule</title>
<path fill="none" stroke="black" d="M1893,-122.29C1893,-144.21 1893,-178 1893,-178 1893,-178 2178.38,-178 2178.38,-178"/>
<polygon fill="black" stroke="black" points="2178.38,-181.5 2188.38,-178 2178.38,-174.5 2178.38,-181.5"/>
</g>
<!-- FooterComponent -->
<g id="node17" class="node">
<title>FooterComponent</title>
<polygon fill="#ffffb3" stroke="black" points="1788.88,-190 1671.12,-190 1671.12,-154 1788.88,-154 1788.88,-190"/>
<text text-anchor="middle" x="1730" y="-167.8" font-family="Times,serif" font-size="14.00">FooterComponent</text>
</g>
<!-- FooterComponent&#45;&gt;CoreModule -->
<g id="edge15" class="edge">
<title>FooterComponent&#45;&gt;CoreModule</title>
<path fill="none" stroke="black" d="M1730,-153.75C1730,-130.98 1730,-95 1730,-95 1730,-95 1212.39,-95 1212.39,-95"/>
<polygon fill="black" stroke="black" points="1212.39,-91.5 1202.39,-95 1212.39,-98.5 1212.39,-91.5"/>
</g>
<!-- HeaderComponent -->
<g id="node18" class="node">
<title>HeaderComponent</title>
<polygon fill="#ffffb3" stroke="black" points="1652.74,-190 1531.26,-190 1531.26,-154 1652.74,-154 1652.74,-190"/>
<text text-anchor="middle" x="1592" y="-167.8" font-family="Times,serif" font-size="14.00">HeaderComponent</text>
</g>
<!-- HeaderComponent&#45;&gt;CoreModule -->
<g id="edge16" class="edge">
<title>HeaderComponent&#45;&gt;CoreModule</title>
<path fill="none" stroke="black" d="M1592,-153.78C1592,-133.63 1592,-104 1592,-104 1592,-104 1212.5,-104 1212.5,-104"/>
<polygon fill="black" stroke="black" points="1212.5,-100.5 1202.5,-104 1212.5,-107.5 1212.5,-100.5"/>
</g>
<!-- CartComponent -->
<g id="node21" class="node">
<title>CartComponent</title>
<polygon fill="#8dd3c7" stroke="black" points="2871.94,-122 2868.94,-126 2847.94,-126 2844.94,-122 2766.06,-122 2766.06,-86 2871.94,-86 2871.94,-122"/>
<text text-anchor="middle" x="2819" y="-99.8" font-family="Times,serif" font-size="14.00">CartComponent</text>
</g>
<!-- UserModule -->
<g id="node24" class="node">
<title>UserModule</title>
<polygon fill="#8dd3c7" stroke="black" points="2731.98,-190 2728.98,-194 2707.98,-194 2704.98,-190 2646.02,-190 2646.02,-154 2731.98,-154 2731.98,-190"/>
<text text-anchor="middle" x="2689" y="-167.8" font-family="Times,serif" font-size="14.00">UserModule</text>
</g>
<!-- CartComponent&#45;&gt;UserModule -->
<g id="edge19" class="edge">
<title>CartComponent&#45;&gt;UserModule</title>
<path fill="none" stroke="black" d="M2819,-122.22C2819,-142.37 2819,-172 2819,-172 2819,-172 2742.29,-172 2742.29,-172"/>
<polygon fill="black" stroke="black" points="2742.29,-168.5 2732.29,-172 2742.29,-175.5 2742.29,-168.5"/>
</g>
<!-- ProfileComponent -->
<g id="node22" class="node">
<title>ProfileComponent</title>
<polygon fill="#8dd3c7" stroke="black" points="2748.93,-122 2745.93,-126 2724.93,-126 2721.93,-122 2629.07,-122 2629.07,-86 2748.93,-86 2748.93,-122"/>
<text text-anchor="middle" x="2689" y="-99.8" font-family="Times,serif" font-size="14.00">ProfileComponent</text>
</g>
<!-- ProfileComponent&#45;&gt;UserModule -->
<g id="edge20" class="edge">
<title>ProfileComponent&#45;&gt;UserModule</title>
<path fill="none" stroke="black" d="M2689,-122.22C2689,-122.22 2689,-143.73 2689,-143.73"/>
<polygon fill="black" stroke="black" points="2685.5,-143.73 2689,-153.73 2692.5,-143.73 2685.5,-143.73"/>
</g>
<!-- UserRoutingModule -->
<g id="node23" class="node">
<title>UserRoutingModule</title>
<polygon fill="#8dd3c7" stroke="black" points="2611.59,-122 2608.59,-126 2587.59,-126 2584.59,-122 2480.41,-122 2480.41,-86 2611.59,-86 2611.59,-122"/>
<text text-anchor="middle" x="2546" y="-99.8" font-family="Times,serif" font-size="14.00">UserRoutingModule</text>
</g>
<!-- UserRoutingModule&#45;&gt;UserModule -->
<g id="edge21" class="edge">
<title>UserRoutingModule&#45;&gt;UserModule</title>
<path fill="none" stroke="black" d="M2546,-122.27C2546,-140.56 2546,-166 2546,-166 2546,-166 2635.71,-166 2635.71,-166"/>
<polygon fill="black" stroke="black" points="2635.71,-169.5 2645.71,-166 2635.71,-162.5 2635.71,-169.5"/>
</g>
</g>
</svg>
